<mxfile host="app.diagrams.net" modified="2023-04-07T16:26:11.579Z" agent="Mozilla/5.0 (Windows NT 10.0; Win64; x64) AppleWebKit/537.36 (KHTML, like Gecko) Chrome/111.0.0.0 Safari/537.36" etag="dHV-i9uKebnhityzuiFV" version="21.1.4" type="device">
  <diagram name="Trang-1" id="qVFSqrAHRnDNE85m8cxB">
    <mxGraphModel dx="934" dy="544" grid="1" gridSize="10" guides="1" tooltips="1" connect="1" arrows="1" fold="1" page="1" pageScale="1" pageWidth="827" pageHeight="1169" math="0" shadow="0">
      <root>
        <mxCell id="0" />
        <mxCell id="1" parent="0" />
        <mxCell id="Sv-jU4yMTwalCRCKe3iW-1" value="Customer" style="shape=umlActor;verticalLabelPosition=bottom;verticalAlign=top;html=1;outlineConnect=0;" parent="1" vertex="1">
          <mxGeometry x="141" y="160" width="30" height="60" as="geometry" />
        </mxCell>
        <mxCell id="Sv-jU4yMTwalCRCKe3iW-16" value="&lt;span style=&quot;font-size: 10px;&quot;&gt;Đăng ký&lt;/span&gt;" style="ellipse;whiteSpace=wrap;html=1;" parent="1" vertex="1">
          <mxGeometry x="200" y="220" width="75" height="30" as="geometry" />
        </mxCell>
        <mxCell id="Sv-jU4yMTwalCRCKe3iW-22" value="&lt;span style=&quot;font-size: 10px;&quot;&gt;Thêm sản phẩm&lt;/span&gt;" style="ellipse;whiteSpace=wrap;html=1;" parent="1" vertex="1">
          <mxGeometry x="290" y="830" width="100" height="40" as="geometry" />
        </mxCell>
        <mxCell id="Sv-jU4yMTwalCRCKe3iW-44" value="Admin" style="shape=umlActor;verticalLabelPosition=bottom;verticalAlign=top;html=1;outlineConnect=0;" parent="1" vertex="1">
          <mxGeometry x="160" y="600" width="30" height="60" as="geometry" />
        </mxCell>
        <mxCell id="Sv-jU4yMTwalCRCKe3iW-45" value="System" style="shape=umlActor;verticalLabelPosition=bottom;verticalAlign=top;html=1;outlineConnect=0;" parent="1" vertex="1">
          <mxGeometry x="320" y="960" width="30" height="60" as="geometry" />
        </mxCell>
        <mxCell id="Sv-jU4yMTwalCRCKe3iW-46" value="&lt;font style=&quot;font-size: 10px;&quot;&gt;Quản lý khách hàng&lt;/font&gt;" style="ellipse;whiteSpace=wrap;html=1;" parent="1" vertex="1">
          <mxGeometry x="270" y="540" width="100" height="40" as="geometry" />
        </mxCell>
        <mxCell id="Sv-jU4yMTwalCRCKe3iW-47" value="&lt;font style=&quot;font-size: 10px;&quot;&gt;Quản lý đơn hàng của khách hàng&lt;/font&gt;" style="ellipse;whiteSpace=wrap;html=1;" parent="1" vertex="1">
          <mxGeometry x="270" y="590" width="100" height="40" as="geometry" />
        </mxCell>
        <mxCell id="Sv-jU4yMTwalCRCKe3iW-48" value="&lt;font style=&quot;font-size: 10px;&quot;&gt;Quản lý lưu và phục hồi dữ liệu&lt;/font&gt;" style="ellipse;whiteSpace=wrap;html=1;" parent="1" vertex="1">
          <mxGeometry x="270" y="690" width="100" height="40" as="geometry" />
        </mxCell>
        <mxCell id="Sv-jU4yMTwalCRCKe3iW-49" value="&lt;font style=&quot;font-size: 10px;&quot;&gt;Quản lý hình thức khuyến mãi&lt;/font&gt;" style="ellipse;whiteSpace=wrap;html=1;" parent="1" vertex="1">
          <mxGeometry x="270" y="640" width="100" height="40" as="geometry" />
        </mxCell>
        <mxCell id="Sv-jU4yMTwalCRCKe3iW-50" value="&lt;font style=&quot;font-size: 10px;&quot;&gt;Quản lý sản phẩm&lt;/font&gt;" style="ellipse;whiteSpace=wrap;html=1;" parent="1" vertex="1">
          <mxGeometry x="270" y="740" width="100" height="40" as="geometry" />
        </mxCell>
        <mxCell id="Sv-jU4yMTwalCRCKe3iW-52" value="" style="endArrow=none;html=1;rounded=0;entryX=0;entryY=0.5;entryDx=0;entryDy=0;" parent="1" target="Sv-jU4yMTwalCRCKe3iW-46" edge="1">
          <mxGeometry width="50" height="50" relative="1" as="geometry">
            <mxPoint x="200" y="630" as="sourcePoint" />
            <mxPoint x="460" y="610" as="targetPoint" />
          </mxGeometry>
        </mxCell>
        <mxCell id="Sv-jU4yMTwalCRCKe3iW-53" value="" style="endArrow=none;html=1;rounded=0;entryX=0;entryY=0.5;entryDx=0;entryDy=0;" parent="1" target="Sv-jU4yMTwalCRCKe3iW-47" edge="1">
          <mxGeometry width="50" height="50" relative="1" as="geometry">
            <mxPoint x="200" y="630" as="sourcePoint" />
            <mxPoint x="460" y="610" as="targetPoint" />
          </mxGeometry>
        </mxCell>
        <mxCell id="Sv-jU4yMTwalCRCKe3iW-54" value="" style="endArrow=none;html=1;rounded=0;entryX=0;entryY=0.5;entryDx=0;entryDy=0;" parent="1" target="Sv-jU4yMTwalCRCKe3iW-49" edge="1">
          <mxGeometry width="50" height="50" relative="1" as="geometry">
            <mxPoint x="200" y="630" as="sourcePoint" />
            <mxPoint x="460" y="610" as="targetPoint" />
          </mxGeometry>
        </mxCell>
        <mxCell id="Sv-jU4yMTwalCRCKe3iW-55" value="" style="endArrow=none;html=1;rounded=0;entryX=0;entryY=0.5;entryDx=0;entryDy=0;" parent="1" target="Sv-jU4yMTwalCRCKe3iW-48" edge="1">
          <mxGeometry width="50" height="50" relative="1" as="geometry">
            <mxPoint x="200" y="630" as="sourcePoint" />
            <mxPoint x="460" y="610" as="targetPoint" />
          </mxGeometry>
        </mxCell>
        <mxCell id="Sv-jU4yMTwalCRCKe3iW-56" value="" style="endArrow=none;html=1;rounded=0;entryX=0;entryY=0.5;entryDx=0;entryDy=0;" parent="1" target="Sv-jU4yMTwalCRCKe3iW-50" edge="1">
          <mxGeometry width="50" height="50" relative="1" as="geometry">
            <mxPoint x="200" y="630" as="sourcePoint" />
            <mxPoint x="460" y="610" as="targetPoint" />
          </mxGeometry>
        </mxCell>
        <mxCell id="Sv-jU4yMTwalCRCKe3iW-58" value="&lt;span style=&quot;font-size: 10px;&quot;&gt;Xử lý kết nối hệ thống&lt;/span&gt;" style="ellipse;whiteSpace=wrap;html=1;" parent="1" vertex="1">
          <mxGeometry x="160" y="900" width="100" height="40" as="geometry" />
        </mxCell>
        <mxCell id="Sv-jU4yMTwalCRCKe3iW-59" value="&lt;span style=&quot;font-size: 10px;&quot;&gt;Tính tiền đơn hàng&lt;/span&gt;" style="ellipse;whiteSpace=wrap;html=1;" parent="1" vertex="1">
          <mxGeometry x="160" y="950" width="100" height="40" as="geometry" />
        </mxCell>
        <mxCell id="Sv-jU4yMTwalCRCKe3iW-60" value="&lt;span style=&quot;font-size: 10px;&quot;&gt;Tính toán chi phí&lt;br&gt;vận chuyển&lt;/span&gt;" style="ellipse;whiteSpace=wrap;html=1;" parent="1" vertex="1">
          <mxGeometry x="160" y="1000" width="100" height="40" as="geometry" />
        </mxCell>
        <mxCell id="Sv-jU4yMTwalCRCKe3iW-61" value="&lt;span style=&quot;font-size: 10px;&quot;&gt;Gửi tin nhắn cho khách hàng&lt;/span&gt;" style="ellipse;whiteSpace=wrap;html=1;" parent="1" vertex="1">
          <mxGeometry x="160" y="1045" width="100" height="40" as="geometry" />
        </mxCell>
        <mxCell id="Sv-jU4yMTwalCRCKe3iW-62" value="&lt;span style=&quot;font-size: 10px;&quot;&gt;Gửi mail cho khách hàng&lt;/span&gt;" style="ellipse;whiteSpace=wrap;html=1;" parent="1" vertex="1">
          <mxGeometry x="160" y="1100" width="100" height="40" as="geometry" />
        </mxCell>
        <mxCell id="Sv-jU4yMTwalCRCKe3iW-63" value="" style="endArrow=none;html=1;rounded=0;exitX=1;exitY=0.5;exitDx=0;exitDy=0;" parent="1" source="Sv-jU4yMTwalCRCKe3iW-58" edge="1">
          <mxGeometry width="50" height="50" relative="1" as="geometry">
            <mxPoint x="220" y="1040" as="sourcePoint" />
            <mxPoint x="310" y="1000" as="targetPoint" />
          </mxGeometry>
        </mxCell>
        <mxCell id="Sv-jU4yMTwalCRCKe3iW-64" value="" style="endArrow=none;html=1;rounded=0;exitX=1;exitY=0.5;exitDx=0;exitDy=0;" parent="1" source="Sv-jU4yMTwalCRCKe3iW-59" edge="1">
          <mxGeometry width="50" height="50" relative="1" as="geometry">
            <mxPoint x="220" y="1040" as="sourcePoint" />
            <mxPoint x="310" y="1000" as="targetPoint" />
          </mxGeometry>
        </mxCell>
        <mxCell id="Sv-jU4yMTwalCRCKe3iW-65" value="" style="endArrow=none;html=1;rounded=0;" parent="1" edge="1">
          <mxGeometry width="50" height="50" relative="1" as="geometry">
            <mxPoint x="260" y="1020" as="sourcePoint" />
            <mxPoint x="310" y="1000" as="targetPoint" />
          </mxGeometry>
        </mxCell>
        <mxCell id="Sv-jU4yMTwalCRCKe3iW-66" value="" style="endArrow=none;html=1;rounded=0;exitX=1;exitY=0.5;exitDx=0;exitDy=0;" parent="1" source="Sv-jU4yMTwalCRCKe3iW-61" edge="1">
          <mxGeometry width="50" height="50" relative="1" as="geometry">
            <mxPoint x="220" y="1040" as="sourcePoint" />
            <mxPoint x="310" y="1000" as="targetPoint" />
          </mxGeometry>
        </mxCell>
        <mxCell id="Sv-jU4yMTwalCRCKe3iW-67" value="" style="endArrow=none;html=1;rounded=0;exitX=1;exitY=0.5;exitDx=0;exitDy=0;" parent="1" source="Sv-jU4yMTwalCRCKe3iW-62" edge="1">
          <mxGeometry width="50" height="50" relative="1" as="geometry">
            <mxPoint x="220" y="1040" as="sourcePoint" />
            <mxPoint x="310" y="1000" as="targetPoint" />
          </mxGeometry>
        </mxCell>
        <mxCell id="I0ydO9TrqWUSBtBojw4Z-23" value="&lt;span style=&quot;font-size: 10px;&quot;&gt;Đặt mua sản phẩm&lt;/span&gt;" style="ellipse;whiteSpace=wrap;html=1;" parent="1" vertex="1">
          <mxGeometry x="340" y="140" width="100" height="40" as="geometry" />
        </mxCell>
        <mxCell id="I0ydO9TrqWUSBtBojw4Z-27" value="&lt;span style=&quot;font-size: 10px;&quot;&gt;Xem sản phẩm&lt;/span&gt;" style="ellipse;whiteSpace=wrap;html=1;" parent="1" vertex="1">
          <mxGeometry x="530" y="250" width="100" height="40" as="geometry" />
        </mxCell>
        <mxCell id="I0ydO9TrqWUSBtBojw4Z-28" value="&lt;span style=&quot;font-size: 10px;&quot;&gt;Tìm kiếm sản phẩm&lt;/span&gt;" style="ellipse;whiteSpace=wrap;html=1;" parent="1" vertex="1">
          <mxGeometry x="530" y="300" width="100" height="40" as="geometry" />
        </mxCell>
        <mxCell id="I0ydO9TrqWUSBtBojw4Z-29" value="&lt;span style=&quot;font-size: 10px;&quot;&gt;Giỏ hàng&lt;/span&gt;" style="ellipse;whiteSpace=wrap;html=1;" parent="1" vertex="1">
          <mxGeometry x="300" y="200" width="100" height="40" as="geometry" />
        </mxCell>
        <mxCell id="I0ydO9TrqWUSBtBojw4Z-31" value="extend" style="html=1;verticalAlign=bottom;endArrow=open;dashed=1;endSize=8;edgeStyle=elbowEdgeStyle;elbow=vertical;curved=0;rounded=0;exitX=0;exitY=0.5;exitDx=0;exitDy=0;" parent="1" source="I0ydO9TrqWUSBtBojw4Z-28" edge="1">
          <mxGeometry x="-0.0379" y="10" relative="1" as="geometry">
            <mxPoint x="480" y="370" as="sourcePoint" />
            <mxPoint x="406" y="180" as="targetPoint" />
            <Array as="points">
              <mxPoint x="480" y="280" />
              <mxPoint x="520" y="270" />
              <mxPoint x="440" y="240" />
            </Array>
            <mxPoint as="offset" />
          </mxGeometry>
        </mxCell>
        <mxCell id="I0ydO9TrqWUSBtBojw4Z-38" value="&lt;span style=&quot;font-size: 10px;&quot;&gt;xóa đơn hàng&lt;/span&gt;" style="ellipse;whiteSpace=wrap;html=1;" parent="1" vertex="1">
          <mxGeometry x="220" y="330" width="100" height="40" as="geometry" />
        </mxCell>
        <mxCell id="I0ydO9TrqWUSBtBojw4Z-39" value="&lt;span style=&quot;font-size: 10px;&quot;&gt;cập nhật đơn hàng&lt;/span&gt;" style="ellipse;whiteSpace=wrap;html=1;" parent="1" vertex="1">
          <mxGeometry x="220" y="370" width="100" height="40" as="geometry" />
        </mxCell>
        <mxCell id="I0ydO9TrqWUSBtBojw4Z-40" value="extend" style="html=1;verticalAlign=bottom;endArrow=open;dashed=1;endSize=8;edgeStyle=elbowEdgeStyle;elbow=vertical;curved=0;rounded=0;exitX=1;exitY=0.5;exitDx=0;exitDy=0;entryX=0.5;entryY=1;entryDx=0;entryDy=0;" parent="1" source="I0ydO9TrqWUSBtBojw4Z-38" target="I0ydO9TrqWUSBtBojw4Z-29" edge="1">
          <mxGeometry relative="1" as="geometry">
            <mxPoint x="431" y="300" as="sourcePoint" />
            <mxPoint x="330" y="320" as="targetPoint" />
            <Array as="points">
              <mxPoint x="360" y="350" />
            </Array>
          </mxGeometry>
        </mxCell>
        <mxCell id="I0ydO9TrqWUSBtBojw4Z-42" value="extend" style="html=1;verticalAlign=bottom;endArrow=open;dashed=1;endSize=8;edgeStyle=elbowEdgeStyle;elbow=vertical;curved=0;rounded=0;exitX=1;exitY=0.5;exitDx=0;exitDy=0;" parent="1" source="I0ydO9TrqWUSBtBojw4Z-39" edge="1">
          <mxGeometry relative="1" as="geometry">
            <mxPoint x="431" y="300" as="sourcePoint" />
            <mxPoint x="360" y="240" as="targetPoint" />
            <Array as="points">
              <mxPoint x="370" y="390" />
            </Array>
          </mxGeometry>
        </mxCell>
        <mxCell id="I0ydO9TrqWUSBtBojw4Z-45" value="&lt;span style=&quot;font-size: 10px;&quot;&gt;Đăng nhập&lt;/span&gt;" style="ellipse;whiteSpace=wrap;html=1;" parent="1" vertex="1">
          <mxGeometry x="300" y="90" width="100" height="40" as="geometry" />
        </mxCell>
        <mxCell id="I0ydO9TrqWUSBtBojw4Z-46" value="" style="endArrow=none;html=1;rounded=0;entryX=0;entryY=0.5;entryDx=0;entryDy=0;" parent="1" target="I0ydO9TrqWUSBtBojw4Z-45" edge="1">
          <mxGeometry width="50" height="50" relative="1" as="geometry">
            <mxPoint x="181" y="190" as="sourcePoint" />
            <mxPoint x="421" y="260" as="targetPoint" />
          </mxGeometry>
        </mxCell>
        <mxCell id="I0ydO9TrqWUSBtBojw4Z-48" value="" style="endArrow=none;html=1;rounded=0;entryX=0.019;entryY=0.694;entryDx=0;entryDy=0;entryPerimeter=0;" parent="1" target="I0ydO9TrqWUSBtBojw4Z-23" edge="1">
          <mxGeometry width="50" height="50" relative="1" as="geometry">
            <mxPoint x="181" y="190" as="sourcePoint" />
            <mxPoint x="411" y="250" as="targetPoint" />
            <Array as="points">
              <mxPoint x="260" y="170" />
            </Array>
          </mxGeometry>
        </mxCell>
        <mxCell id="I0ydO9TrqWUSBtBojw4Z-49" value="&lt;span style=&quot;font-size: 10px;&quot;&gt;chọn phương thức thanh toán&lt;/span&gt;" style="ellipse;whiteSpace=wrap;html=1;" parent="1" vertex="1">
          <mxGeometry x="540" y="120" width="100" height="40" as="geometry" />
        </mxCell>
        <mxCell id="I0ydO9TrqWUSBtBojw4Z-50" value="include" style="html=1;verticalAlign=bottom;endArrow=open;dashed=1;endSize=8;edgeStyle=elbowEdgeStyle;elbow=vertical;curved=0;rounded=0;exitX=1;exitY=0.5;exitDx=0;exitDy=0;entryX=0;entryY=0.5;entryDx=0;entryDy=0;" parent="1" source="I0ydO9TrqWUSBtBojw4Z-23" target="I0ydO9TrqWUSBtBojw4Z-49" edge="1">
          <mxGeometry relative="1" as="geometry">
            <mxPoint x="460" y="190" as="sourcePoint" />
            <mxPoint x="380" y="190" as="targetPoint" />
            <Array as="points">
              <mxPoint x="470" y="140" />
            </Array>
          </mxGeometry>
        </mxCell>
        <mxCell id="I0ydO9TrqWUSBtBojw4Z-55" value="include" style="html=1;verticalAlign=bottom;endArrow=open;dashed=1;endSize=8;edgeStyle=elbowEdgeStyle;elbow=vertical;curved=0;rounded=0;entryX=0.5;entryY=0;entryDx=0;entryDy=0;exitX=0.447;exitY=1.025;exitDx=0;exitDy=0;exitPerimeter=0;" parent="1" source="I0ydO9TrqWUSBtBojw4Z-97" target="I0ydO9TrqWUSBtBojw4Z-45" edge="1">
          <mxGeometry relative="1" as="geometry">
            <mxPoint x="220" y="70" as="sourcePoint" />
            <mxPoint x="390" y="160" as="targetPoint" />
          </mxGeometry>
        </mxCell>
        <mxCell id="I0ydO9TrqWUSBtBojw4Z-57" value="&lt;span style=&quot;font-size: 10px;&quot;&gt;Xem discount&lt;/span&gt;" style="ellipse;whiteSpace=wrap;html=1;" parent="1" vertex="1">
          <mxGeometry x="420" y="10" width="100" height="40" as="geometry" />
        </mxCell>
        <mxCell id="I0ydO9TrqWUSBtBojw4Z-59" value="" style="endArrow=none;html=1;rounded=0;exitX=0.445;exitY=-0.039;exitDx=0;exitDy=0;exitPerimeter=0;" parent="1" source="Sv-jU4yMTwalCRCKe3iW-16" edge="1">
          <mxGeometry width="50" height="50" relative="1" as="geometry">
            <mxPoint x="350" y="260" as="sourcePoint" />
            <mxPoint x="180" y="190" as="targetPoint" />
          </mxGeometry>
        </mxCell>
        <mxCell id="I0ydO9TrqWUSBtBojw4Z-62" value="&lt;span style=&quot;font-size: 10px;&quot;&gt;Sửa thông tin sản phẩm&lt;/span&gt;" style="ellipse;whiteSpace=wrap;html=1;" parent="1" vertex="1">
          <mxGeometry x="400" y="820" width="100" height="40" as="geometry" />
        </mxCell>
        <mxCell id="I0ydO9TrqWUSBtBojw4Z-63" value="&lt;span style=&quot;font-size: 10px;&quot;&gt;Xóa sản phẩm&lt;/span&gt;" style="ellipse;whiteSpace=wrap;html=1;" parent="1" vertex="1">
          <mxGeometry x="190" y="820" width="100" height="40" as="geometry" />
        </mxCell>
        <mxCell id="I0ydO9TrqWUSBtBojw4Z-64" value="&lt;span style=&quot;font-size: 10px;&quot;&gt;xem và tìm kiếm &lt;br&gt;sản phẩm&lt;/span&gt;" style="ellipse;whiteSpace=wrap;html=1;" parent="1" vertex="1">
          <mxGeometry x="415" y="780" width="100" height="40" as="geometry" />
        </mxCell>
        <mxCell id="I0ydO9TrqWUSBtBojw4Z-65" value="extend" style="html=1;verticalAlign=bottom;endArrow=open;dashed=1;endSize=8;edgeStyle=elbowEdgeStyle;elbow=vertical;curved=0;rounded=0;exitX=0;exitY=0.5;exitDx=0;exitDy=0;entryX=1;entryY=1;entryDx=0;entryDy=0;" parent="1" source="I0ydO9TrqWUSBtBojw4Z-64" target="Sv-jU4yMTwalCRCKe3iW-50" edge="1">
          <mxGeometry relative="1" as="geometry">
            <mxPoint x="440" y="710" as="sourcePoint" />
            <mxPoint x="360" y="710" as="targetPoint" />
          </mxGeometry>
        </mxCell>
        <mxCell id="I0ydO9TrqWUSBtBojw4Z-66" value="extend" style="html=1;verticalAlign=bottom;endArrow=open;dashed=1;endSize=8;edgeStyle=elbowEdgeStyle;elbow=vertical;curved=0;rounded=0;exitX=0;exitY=0.5;exitDx=0;exitDy=0;entryX=0.73;entryY=0.962;entryDx=0;entryDy=0;entryPerimeter=0;" parent="1" source="I0ydO9TrqWUSBtBojw4Z-62" target="Sv-jU4yMTwalCRCKe3iW-50" edge="1">
          <mxGeometry relative="1" as="geometry">
            <mxPoint x="440" y="710" as="sourcePoint" />
            <mxPoint x="360" y="710" as="targetPoint" />
          </mxGeometry>
        </mxCell>
        <mxCell id="I0ydO9TrqWUSBtBojw4Z-67" value="extend" style="html=1;verticalAlign=bottom;endArrow=open;dashed=1;endSize=8;edgeStyle=elbowEdgeStyle;elbow=vertical;curved=0;rounded=0;entryX=0.647;entryY=1;entryDx=0;entryDy=0;entryPerimeter=0;" parent="1" source="Sv-jU4yMTwalCRCKe3iW-22" target="Sv-jU4yMTwalCRCKe3iW-50" edge="1">
          <mxGeometry relative="1" as="geometry">
            <mxPoint x="440" y="850" as="sourcePoint" />
            <mxPoint x="360" y="850" as="targetPoint" />
          </mxGeometry>
        </mxCell>
        <mxCell id="I0ydO9TrqWUSBtBojw4Z-68" value="extend" style="html=1;verticalAlign=bottom;endArrow=open;dashed=1;endSize=8;edgeStyle=elbowEdgeStyle;elbow=vertical;curved=0;rounded=0;exitX=0.5;exitY=0;exitDx=0;exitDy=0;entryX=0.464;entryY=0.981;entryDx=0;entryDy=0;entryPerimeter=0;" parent="1" source="I0ydO9TrqWUSBtBojw4Z-63" target="Sv-jU4yMTwalCRCKe3iW-50" edge="1">
          <mxGeometry relative="1" as="geometry">
            <mxPoint x="440" y="850" as="sourcePoint" />
            <mxPoint x="360" y="850" as="targetPoint" />
            <Array as="points">
              <mxPoint x="230" y="790" />
            </Array>
          </mxGeometry>
        </mxCell>
        <mxCell id="I0ydO9TrqWUSBtBojw4Z-69" value="&lt;span style=&quot;font-size: 10px;&quot;&gt;Xem thông tin &lt;br&gt;khách hàng&lt;br&gt;&lt;/span&gt;" style="ellipse;whiteSpace=wrap;html=1;" parent="1" vertex="1">
          <mxGeometry x="315" y="450" width="100" height="40" as="geometry" />
        </mxCell>
        <mxCell id="I0ydO9TrqWUSBtBojw4Z-70" value="&lt;span style=&quot;font-size: 10px;&quot;&gt;Xóa khách hàng&lt;/span&gt;" style="ellipse;whiteSpace=wrap;html=1;" parent="1" vertex="1">
          <mxGeometry x="415" y="470" width="100" height="40" as="geometry" />
        </mxCell>
        <mxCell id="I0ydO9TrqWUSBtBojw4Z-71" value="&lt;span style=&quot;font-size: 10px;&quot;&gt;tìm kiếm&lt;br&gt;khách hàng&lt;br&gt;&lt;/span&gt;" style="ellipse;whiteSpace=wrap;html=1;" parent="1" vertex="1">
          <mxGeometry x="480" y="510" width="100" height="40" as="geometry" />
        </mxCell>
        <mxCell id="I0ydO9TrqWUSBtBojw4Z-72" value="extend" style="html=1;verticalAlign=bottom;endArrow=open;dashed=1;endSize=8;edgeStyle=elbowEdgeStyle;elbow=vertical;curved=0;rounded=0;entryX=0.5;entryY=0;entryDx=0;entryDy=0;exitX=0;exitY=1;exitDx=0;exitDy=0;" parent="1" source="I0ydO9TrqWUSBtBojw4Z-69" target="Sv-jU4yMTwalCRCKe3iW-46" edge="1">
          <mxGeometry relative="1" as="geometry">
            <mxPoint x="480" y="540" as="sourcePoint" />
            <mxPoint x="400" y="540" as="targetPoint" />
          </mxGeometry>
        </mxCell>
        <mxCell id="I0ydO9TrqWUSBtBojw4Z-73" value="extend" style="html=1;verticalAlign=bottom;endArrow=open;dashed=1;endSize=8;edgeStyle=elbowEdgeStyle;elbow=vertical;curved=0;rounded=0;entryX=0.752;entryY=0.014;entryDx=0;entryDy=0;entryPerimeter=0;exitX=0;exitY=0.5;exitDx=0;exitDy=0;" parent="1" source="I0ydO9TrqWUSBtBojw4Z-70" target="Sv-jU4yMTwalCRCKe3iW-46" edge="1">
          <mxGeometry relative="1" as="geometry">
            <mxPoint x="480" y="540" as="sourcePoint" />
            <mxPoint x="400" y="540" as="targetPoint" />
          </mxGeometry>
        </mxCell>
        <mxCell id="I0ydO9TrqWUSBtBojw4Z-74" value="extend" style="html=1;verticalAlign=bottom;endArrow=open;dashed=1;endSize=8;edgeStyle=elbowEdgeStyle;elbow=vertical;curved=0;rounded=0;exitX=0;exitY=0.5;exitDx=0;exitDy=0;entryX=1;entryY=0.5;entryDx=0;entryDy=0;" parent="1" source="I0ydO9TrqWUSBtBojw4Z-71" target="Sv-jU4yMTwalCRCKe3iW-46" edge="1">
          <mxGeometry relative="1" as="geometry">
            <mxPoint x="480" y="540" as="sourcePoint" />
            <mxPoint x="400" y="540" as="targetPoint" />
          </mxGeometry>
        </mxCell>
        <mxCell id="I0ydO9TrqWUSBtBojw4Z-75" value="&lt;span style=&quot;font-size: 10px;&quot;&gt;cập nhật đơn hàng&lt;br&gt;&lt;/span&gt;" style="ellipse;whiteSpace=wrap;html=1;" parent="1" vertex="1">
          <mxGeometry x="430" y="550" width="100" height="40" as="geometry" />
        </mxCell>
        <mxCell id="I0ydO9TrqWUSBtBojw4Z-76" value="&lt;span style=&quot;font-size: 10px;&quot;&gt;Xóa đơn hàng&lt;br&gt;&lt;/span&gt;" style="ellipse;whiteSpace=wrap;html=1;" parent="1" vertex="1">
          <mxGeometry x="460" y="590" width="100" height="40" as="geometry" />
        </mxCell>
        <mxCell id="I0ydO9TrqWUSBtBojw4Z-77" value="extend" style="html=1;verticalAlign=bottom;endArrow=open;dashed=1;endSize=8;edgeStyle=elbowEdgeStyle;elbow=vertical;curved=0;rounded=0;entryX=1;entryY=0;entryDx=0;entryDy=0;exitX=0;exitY=0.5;exitDx=0;exitDy=0;" parent="1" source="I0ydO9TrqWUSBtBojw4Z-75" target="Sv-jU4yMTwalCRCKe3iW-47" edge="1">
          <mxGeometry relative="1" as="geometry">
            <mxPoint x="460" y="690" as="sourcePoint" />
            <mxPoint x="380" y="690" as="targetPoint" />
          </mxGeometry>
        </mxCell>
        <mxCell id="I0ydO9TrqWUSBtBojw4Z-78" value="extend" style="html=1;verticalAlign=bottom;endArrow=open;dashed=1;endSize=8;edgeStyle=elbowEdgeStyle;elbow=vertical;curved=0;rounded=0;entryX=1;entryY=0.5;entryDx=0;entryDy=0;" parent="1" source="I0ydO9TrqWUSBtBojw4Z-76" target="Sv-jU4yMTwalCRCKe3iW-47" edge="1">
          <mxGeometry relative="1" as="geometry">
            <mxPoint x="460" y="690" as="sourcePoint" />
            <mxPoint x="380" y="690" as="targetPoint" />
          </mxGeometry>
        </mxCell>
        <mxCell id="I0ydO9TrqWUSBtBojw4Z-79" value="&lt;span style=&quot;font-size: 10px;&quot;&gt;Cập nhận khuyến mãi&lt;br&gt;&lt;/span&gt;" style="ellipse;whiteSpace=wrap;html=1;" parent="1" vertex="1">
          <mxGeometry x="470" y="640" width="100" height="40" as="geometry" />
        </mxCell>
        <mxCell id="I0ydO9TrqWUSBtBojw4Z-80" value="&lt;span style=&quot;font-size: 10px;&quot;&gt;Xóa khuyến mãi&lt;br&gt;&lt;/span&gt;" style="ellipse;whiteSpace=wrap;html=1;" parent="1" vertex="1">
          <mxGeometry x="470" y="680" width="100" height="40" as="geometry" />
        </mxCell>
        <mxCell id="I0ydO9TrqWUSBtBojw4Z-81" value="extend" style="html=1;verticalAlign=bottom;endArrow=open;dashed=1;endSize=8;edgeStyle=elbowEdgeStyle;elbow=vertical;curved=0;rounded=0;entryX=1;entryY=0.5;entryDx=0;entryDy=0;" parent="1" source="I0ydO9TrqWUSBtBojw4Z-79" target="Sv-jU4yMTwalCRCKe3iW-49" edge="1">
          <mxGeometry relative="1" as="geometry">
            <mxPoint x="460" y="680" as="sourcePoint" />
            <mxPoint x="380" y="680" as="targetPoint" />
          </mxGeometry>
        </mxCell>
        <mxCell id="I0ydO9TrqWUSBtBojw4Z-82" value="extend" style="html=1;verticalAlign=bottom;endArrow=open;dashed=1;endSize=8;edgeStyle=elbowEdgeStyle;elbow=vertical;curved=0;rounded=0;exitX=0.013;exitY=0.646;exitDx=0;exitDy=0;exitPerimeter=0;entryX=0.983;entryY=0.692;entryDx=0;entryDy=0;entryPerimeter=0;" parent="1" source="I0ydO9TrqWUSBtBojw4Z-80" target="Sv-jU4yMTwalCRCKe3iW-49" edge="1">
          <mxGeometry relative="1" as="geometry">
            <mxPoint x="460" y="680" as="sourcePoint" />
            <mxPoint x="380" y="680" as="targetPoint" />
          </mxGeometry>
        </mxCell>
        <mxCell id="I0ydO9TrqWUSBtBojw4Z-85" value="&lt;span style=&quot;font-size: 10px;&quot;&gt;Đăng nhập&lt;br&gt;&lt;/span&gt;" style="ellipse;whiteSpace=wrap;html=1;" parent="1" vertex="1">
          <mxGeometry x="190" y="450" width="100" height="40" as="geometry" />
        </mxCell>
        <mxCell id="I0ydO9TrqWUSBtBojw4Z-86" value="include" style="html=1;verticalAlign=bottom;endArrow=open;dashed=1;endSize=8;edgeStyle=elbowEdgeStyle;elbow=vertical;curved=0;rounded=0;entryX=0;entryY=1;entryDx=0;entryDy=0;exitX=-0.014;exitY=0.653;exitDx=0;exitDy=0;exitPerimeter=0;" parent="1" source="Sv-jU4yMTwalCRCKe3iW-50" target="I0ydO9TrqWUSBtBojw4Z-85" edge="1">
          <mxGeometry x="0.7349" y="-5" relative="1" as="geometry">
            <mxPoint x="450" y="620" as="sourcePoint" />
            <mxPoint x="370" y="620" as="targetPoint" />
            <Array as="points">
              <mxPoint x="270" y="560" />
            </Array>
            <mxPoint as="offset" />
          </mxGeometry>
        </mxCell>
        <mxCell id="I0ydO9TrqWUSBtBojw4Z-91" value="&lt;span style=&quot;font-size: 10px;&quot;&gt;Chọn discount&lt;/span&gt;" style="ellipse;whiteSpace=wrap;html=1;" parent="1" vertex="1">
          <mxGeometry x="520" y="30" width="100" height="40" as="geometry" />
        </mxCell>
        <mxCell id="I0ydO9TrqWUSBtBojw4Z-93" value="include" style="html=1;verticalAlign=bottom;endArrow=open;dashed=1;endSize=8;edgeStyle=elbowEdgeStyle;elbow=vertical;curved=0;rounded=0;entryX=1;entryY=0.5;entryDx=0;entryDy=0;exitX=0;exitY=0.5;exitDx=0;exitDy=0;" parent="1" source="I0ydO9TrqWUSBtBojw4Z-91" target="I0ydO9TrqWUSBtBojw4Z-45" edge="1">
          <mxGeometry relative="1" as="geometry">
            <mxPoint x="450" y="280" as="sourcePoint" />
            <mxPoint x="370" y="280" as="targetPoint" />
          </mxGeometry>
        </mxCell>
        <mxCell id="I0ydO9TrqWUSBtBojw4Z-94" value="extend" style="html=1;verticalAlign=bottom;endArrow=open;dashed=1;endSize=8;edgeStyle=elbowEdgeStyle;elbow=vertical;curved=0;rounded=0;exitX=0.5;exitY=1;exitDx=0;exitDy=0;entryX=1;entryY=0;entryDx=0;entryDy=0;" parent="1" source="I0ydO9TrqWUSBtBojw4Z-91" target="I0ydO9TrqWUSBtBojw4Z-23" edge="1">
          <mxGeometry relative="1" as="geometry">
            <mxPoint x="460" y="200" as="sourcePoint" />
            <mxPoint x="420" y="140" as="targetPoint" />
            <Array as="points">
              <mxPoint x="550" y="110" />
            </Array>
          </mxGeometry>
        </mxCell>
        <mxCell id="I0ydO9TrqWUSBtBojw4Z-95" value="&lt;span style=&quot;font-size: 10px;&quot;&gt;Nhập thông tin&lt;/span&gt;" style="ellipse;whiteSpace=wrap;html=1;" parent="1" vertex="1">
          <mxGeometry x="540" y="170" width="100" height="40" as="geometry" />
        </mxCell>
        <mxCell id="I0ydO9TrqWUSBtBojw4Z-96" value="include" style="html=1;verticalAlign=bottom;endArrow=open;dashed=1;endSize=8;edgeStyle=elbowEdgeStyle;elbow=vertical;curved=0;rounded=0;exitX=1;exitY=0.5;exitDx=0;exitDy=0;entryX=0;entryY=0.5;entryDx=0;entryDy=0;" parent="1" source="I0ydO9TrqWUSBtBojw4Z-23" target="I0ydO9TrqWUSBtBojw4Z-95" edge="1">
          <mxGeometry x="-0.0045" relative="1" as="geometry">
            <mxPoint x="500" y="200" as="sourcePoint" />
            <mxPoint x="420" y="200" as="targetPoint" />
            <Array as="points">
              <mxPoint x="480" y="160" />
            </Array>
            <mxPoint as="offset" />
          </mxGeometry>
        </mxCell>
        <mxCell id="I0ydO9TrqWUSBtBojw4Z-97" value="&lt;span style=&quot;font-size: 10px;&quot;&gt;Quản lý thông tin&lt;br&gt;&amp;nbsp;cá nhân&lt;/span&gt;" style="ellipse;whiteSpace=wrap;html=1;" parent="1" vertex="1">
          <mxGeometry x="290" y="10" width="100" height="40" as="geometry" />
        </mxCell>
        <mxCell id="I0ydO9TrqWUSBtBojw4Z-37" value="&lt;span style=&quot;font-size: 10px;&quot;&gt;thêm hàng&lt;/span&gt;" style="ellipse;whiteSpace=wrap;html=1;" parent="1" vertex="1">
          <mxGeometry x="220" y="290" width="100" height="40" as="geometry" />
        </mxCell>
        <mxCell id="I0ydO9TrqWUSBtBojw4Z-102" value="extend" style="html=1;verticalAlign=bottom;endArrow=open;dashed=1;endSize=8;edgeStyle=elbowEdgeStyle;elbow=vertical;curved=0;rounded=0;exitX=1;exitY=0.5;exitDx=0;exitDy=0;" parent="1" source="I0ydO9TrqWUSBtBojw4Z-37" edge="1" target="I0ydO9TrqWUSBtBojw4Z-29">
          <mxGeometry relative="1" as="geometry">
            <mxPoint x="400" y="320" as="sourcePoint" />
            <mxPoint x="320" y="320" as="targetPoint" />
            <Array as="points">
              <mxPoint x="340" y="310" />
            </Array>
            <mxPoint as="offset" />
          </mxGeometry>
        </mxCell>
        <mxCell id="I0ydO9TrqWUSBtBojw4Z-109" value="&lt;span style=&quot;font-size: 10px;&quot;&gt;Dánh giá sản phẩm&lt;/span&gt;" style="ellipse;whiteSpace=wrap;html=1;" parent="1" vertex="1">
          <mxGeometry x="190" y="10" width="100" height="40" as="geometry" />
        </mxCell>
        <mxCell id="I0ydO9TrqWUSBtBojw4Z-110" value="include" style="html=1;verticalAlign=bottom;endArrow=open;dashed=1;endSize=8;edgeStyle=elbowEdgeStyle;elbow=vertical;curved=0;rounded=0;entryX=0.279;entryY=0.076;entryDx=0;entryDy=0;entryPerimeter=0;exitX=0.5;exitY=1;exitDx=0;exitDy=0;" parent="1" source="I0ydO9TrqWUSBtBojw4Z-109" target="I0ydO9TrqWUSBtBojw4Z-45" edge="1">
          <mxGeometry relative="1" as="geometry">
            <mxPoint x="400" y="200" as="sourcePoint" />
            <mxPoint x="320" y="200" as="targetPoint" />
          </mxGeometry>
        </mxCell>
        <mxCell id="b_MUOJMvZ4tBjtC3I4iN-1" value="include" style="html=1;verticalAlign=bottom;endArrow=open;dashed=1;endSize=8;edgeStyle=elbowEdgeStyle;elbow=vertical;curved=0;rounded=0;exitX=0.5;exitY=1;exitDx=0;exitDy=0;entryX=0.767;entryY=0.108;entryDx=0;entryDy=0;entryPerimeter=0;" edge="1" parent="1" source="I0ydO9TrqWUSBtBojw4Z-57" target="I0ydO9TrqWUSBtBojw4Z-45">
          <mxGeometry relative="1" as="geometry">
            <mxPoint x="450" y="240" as="sourcePoint" />
            <mxPoint x="370" y="240" as="targetPoint" />
            <Array as="points">
              <mxPoint x="420" y="70" />
            </Array>
          </mxGeometry>
        </mxCell>
        <mxCell id="b_MUOJMvZ4tBjtC3I4iN-3" value="" style="endArrow=none;html=1;rounded=0;entryX=0;entryY=0;entryDx=0;entryDy=0;" edge="1" parent="1" target="I0ydO9TrqWUSBtBojw4Z-29">
          <mxGeometry width="50" height="50" relative="1" as="geometry">
            <mxPoint x="180" y="190" as="sourcePoint" />
            <mxPoint x="430" y="220" as="targetPoint" />
          </mxGeometry>
        </mxCell>
        <mxCell id="b_MUOJMvZ4tBjtC3I4iN-4" value="extend" style="html=1;verticalAlign=bottom;endArrow=open;dashed=1;endSize=8;edgeStyle=elbowEdgeStyle;elbow=vertical;curved=0;rounded=0;entryX=0;entryY=0.5;entryDx=0;entryDy=0;exitX=0.76;exitY=1.008;exitDx=0;exitDy=0;exitPerimeter=0;" edge="1" parent="1" source="I0ydO9TrqWUSBtBojw4Z-23" target="I0ydO9TrqWUSBtBojw4Z-27">
          <mxGeometry relative="1" as="geometry">
            <mxPoint x="450" y="240" as="sourcePoint" />
            <mxPoint x="370" y="240" as="targetPoint" />
          </mxGeometry>
        </mxCell>
      </root>
    </mxGraphModel>
  </diagram>
</mxfile>
